<svg width="100%" height="100%" xmlns="http://www.w3.org/2000/svg" fill="none" viewBox="0 0 32 32"><path fill="#16DF77" d="M19.5 11h-7a1.5 1.5 0 0 0-1.5 1.5v7a1.5 1.5 0 0 0 1.5 1.5h7a1.5 1.5 0 0 0 1.5-1.5v-7a1.5 1.5 0 0 0-1.5-1.5M18 18h-4v-4h4zm11-.5h-1.5v-3H29a1.5 1.5 0 1 0 0-3h-1.5V7A2.5 2.5 0 0 0 25 4.5h-4.5V3a1.5 1.5 0 1 0-3 0v1.5h-3V3a1.5 1.5 0 1 0-3 0v1.5H7A2.5 2.5 0 0 0 4.5 7v4.5H3a1.5 1.5 0 1 0 0 3h1.5v3H3a1.5 1.5 0 1 0 0 3h1.5V25A2.5 2.5 0 0 0 7 27.5h4.5V29a1.5 1.5 0 1 0 3 0v-1.5h3V29a1.5 1.5 0 1 0 3 0v-1.5H25a2.5 2.5 0 0 0 2.5-2.5v-4.5H29a1.5 1.5 0 1 0 0-3m-4.5 7h-17v-17h17z"/></svg>